<svg width="45" height="42" viewBox="0 0 45 42" fill="none" xmlns="http://www.w3.org/2000/svg">
<path d="M22.5 15.9994C21.4404 15.9997 20.4047 16.2933 19.5239 16.843C18.6431 17.3927 17.9567 18.1739 17.5515 19.0876C17.1462 20.0014 17.0404 21.0068 17.2474 21.9767C17.4543 22.9466 17.9648 23.8375 18.7142 24.5366C19.4636 25.2358 20.4182 25.7119 21.4575 25.9047C22.4967 26.0975 23.5739 25.9983 24.5528 25.6198C25.5317 25.2413 26.3684 24.6003 26.957 23.778C27.5456 22.9557 27.8598 21.989 27.8598 21C27.8588 19.6737 27.2937 18.4021 26.2887 17.4645C25.2837 16.5268 23.921 15.9999 22.5 15.9994ZM35.0267 12.1556C34.7539 11.5105 34.342 10.9245 33.8166 10.4341C33.2911 9.94368 32.6633 9.55926 31.9721 9.30469C29.8627 8.5275 24.8404 8.70187 22.5 8.70187C20.1596 8.70187 15.1423 8.52094 13.0269 9.30469C12.3357 9.55926 11.7079 9.94368 11.1824 10.4341C10.657 10.9245 10.2451 11.5105 9.97232 12.1556C9.14062 14.1244 9.32645 18.8166 9.32645 20.9991C9.32645 23.1816 9.14062 27.8681 9.97634 29.8434C10.2491 30.4886 10.661 31.0745 11.1864 31.565C11.7119 32.0554 12.3397 32.4398 13.0309 32.6944C15.1403 33.4716 20.1626 33.2972 22.504 33.2972C24.8454 33.2972 29.8607 33.4781 31.9761 32.6944C32.6673 32.4398 33.2952 32.0554 33.8206 31.565C34.3461 31.0745 34.7579 30.4886 35.0307 29.8434C35.8694 27.8747 35.6766 23.1825 35.6766 21C35.6766 18.8175 35.8694 14.1319 35.0307 12.1566L35.0267 12.1556ZM22.5 28.6875C20.871 28.6875 19.2785 28.2366 17.924 27.3919C16.5695 26.5472 15.5138 25.3466 14.8904 23.9419C14.267 22.5372 14.1038 20.9915 14.4217 19.5002C14.7395 18.009 15.5239 16.6392 16.6758 15.5641C17.8277 14.489 19.2954 13.7568 20.8931 13.4602C22.4909 13.1636 24.147 13.3158 25.652 13.8977C27.1571 14.4795 28.4434 15.4649 29.3485 16.7291C30.2535 17.9933 30.7366 19.4796 30.7366 21C30.7379 22.0099 30.5258 23.0101 30.1123 23.9433C29.6989 24.8766 29.0922 25.7245 28.3271 26.4386C27.562 27.1527 26.6535 27.7189 25.6536 28.1048C24.6537 28.4907 23.582 28.6887 22.5 28.6875ZM31.0761 14.7844C30.6958 14.7846 30.324 14.6795 30.0077 14.4824C29.6914 14.2854 29.4449 14.0052 29.2992 13.6773C29.1535 13.3495 29.1153 12.9886 29.1894 12.6405C29.2635 12.2924 29.4465 11.9726 29.7153 11.7215C29.9841 11.4705 30.3267 11.2995 30.6997 11.2302C31.0726 11.1609 31.4592 11.1963 31.8106 11.3321C32.162 11.4679 32.4623 11.6979 32.6736 11.993C32.8849 12.2881 32.9977 12.6351 32.9977 12.99C32.9987 13.2257 32.9499 13.4593 32.854 13.6773C32.7581 13.8954 32.6171 14.0936 32.4389 14.2607C32.2608 14.4277 32.049 14.5603 31.8159 14.6508C31.5827 14.7413 31.3327 14.788 31.0801 14.7881L31.0761 14.7844ZM40.1786 0H4.82143C3.54271 0 2.31636 0.474106 1.41216 1.31802C0.50797 2.16193 0 3.30653 0 4.5L0 37.5C0 38.6935 0.50797 39.8381 1.41216 40.682C2.31636 41.5259 3.54271 42 4.82143 42H40.1786C41.4573 42 42.6836 41.5259 43.5878 40.682C44.492 39.8381 45 38.6935 45 37.5V4.5C45 3.30653 44.492 2.16193 43.5878 1.31802C42.6836 0.474106 41.4573 0 40.1786 0ZM38.4589 27.1875C38.3294 29.5903 37.7417 31.7194 35.8624 33.4688C33.983 35.2181 31.7039 35.7778 29.1325 35.8922C26.4797 36.0319 18.5263 36.0319 15.8735 35.8922C13.2991 35.7713 11.026 35.2219 9.14364 33.4688C7.26127 31.7156 6.66964 29.5856 6.5471 27.1875C6.39743 24.7106 6.39743 17.2866 6.5471 14.8125C6.67667 12.4097 7.25725 10.2806 9.14364 8.53125C11.03 6.78188 13.3092 6.22875 15.8735 6.11438C18.5263 5.97469 26.4797 5.97469 29.1325 6.11438C31.7069 6.23531 33.9871 6.78469 35.8624 8.53781C37.7377 10.2909 38.3364 12.4209 38.4589 14.8237C38.6086 17.2913 38.6086 24.7087 38.4589 27.1875Z" fill="white"/>
</svg>
