<svg width="45" height="37" viewBox="0 0 45 37" fill="none" xmlns="http://www.w3.org/2000/svg">
<path d="M40.3745 9.22106C40.403 9.62573 40.403 10.0305 40.403 10.4352C40.403 22.7781 31.1232 37 14.1625 37C8.93719 37 4.08315 35.4679 0 32.8086C0.742415 32.8953 1.45618 32.9242 2.22716 32.9242C6.53865 32.9242 10.5076 31.45 13.6771 28.9352C9.62248 28.8484 6.22461 26.1602 5.05391 22.4602C5.62502 22.5468 6.19605 22.6046 6.79573 22.6046C7.62375 22.6046 8.45186 22.489 9.22275 22.2867C4.99686 21.4195 1.82734 17.6617 1.82734 13.1234V13.0078C3.05509 13.7016 4.48288 14.1352 5.9961 14.1929C3.51195 12.5163 1.88447 9.65465 1.88447 6.41712C1.88447 4.68278 2.34124 3.09294 3.14078 1.70543C7.68079 7.37105 14.5051 11.071 22.1573 11.4757C22.0146 10.782 21.9289 10.0594 21.9289 9.33673C21.9289 4.19136 26.0406 0 31.1516 0C33.8071 0 36.2055 1.12734 37.8902 2.94844C39.9746 2.54377 41.9733 1.76326 43.7437 0.693755C43.0583 2.86177 41.6021 4.68287 39.6891 5.83904C41.5451 5.63679 43.344 5.11636 45 4.39378C43.7439 6.24371 42.1733 7.8913 40.3745 9.22106Z" fill="white"/>
</svg>
