<svg width="231" height="48" viewBox="0 0 231 48" fill="none" xmlns="http://www.w3.org/2000/svg">
<path d="M10.123 16.3828C8.86133 16.3828 7.83464 16.2467 7.04297 15.9746C6.27604 15.7025 5.75651 15.3561 5.48438 14.9355C5.36068 14.7624 5.24935 14.5026 5.15039 14.1562C5.05143 13.8099 5.08854 13.4264 5.26172 13.0059C5.60807 13.278 5.97917 13.4883 6.375 13.6367C6.79557 13.7604 7.17904 13.847 7.52539 13.8965C7.94596 13.9707 8.35417 14.0078 8.75 14.0078C9.49219 14.0078 10.2096 13.946 10.9023 13.8223C11.6198 13.6986 12.3249 13.5254 13.0176 13.3027C13.3145 11.8184 13.599 10.4824 13.8711 9.29492C14.168 8.10742 14.502 7.14258 14.873 6.40039C15.2689 5.58398 15.6771 4.85417 16.0977 4.21094C16.543 3.54297 17.0254 2.98633 17.5449 2.54102C18.0892 2.07096 18.6829 1.71224 19.3262 1.46484C19.9694 1.21745 20.7116 1.09375 21.5527 1.09375C22.1712 1.09375 22.6536 1.21745 23 1.46484C23.3711 1.71224 23.6432 2.02148 23.8164 2.39258C24.0143 2.76367 24.1257 3.17188 24.1504 3.61719C24.1999 4.03776 24.2246 4.43359 24.2246 4.80469C24.2246 5.62109 24.0267 6.51172 23.6309 7.47656C23.235 8.44141 22.6784 9.39388 21.9609 10.334C21.2435 11.2741 20.3776 12.1647 19.3633 13.0059C18.3737 13.847 17.2604 14.5397 16.0234 15.084C15.6029 16.7168 15.1823 18.3372 14.7617 19.9453C14.3659 21.5286 13.9701 22.8398 13.5742 23.8789C13.2279 24.8438 12.7826 25.9199 12.2383 27.1074C11.7188 28.2949 11.0755 29.4329 10.3086 30.5215C10.7786 30.8184 11.2487 31.1276 11.7188 31.4492C12.2135 31.7708 12.7083 32.0553 13.2031 32.3027C13.6979 32.5749 14.1927 32.7975 14.6875 32.9707C15.207 33.1439 15.7513 33.2305 16.3203 33.2305C16.9141 33.2057 17.4954 33.1191 18.0645 32.9707C18.5592 32.847 19.0788 32.6367 19.623 32.3398C20.1673 32.0677 20.6745 31.6719 21.1445 31.1523C21.3177 31.4492 21.3672 31.8945 21.293 32.4883C21.2435 33.082 21.0579 33.6758 20.7363 34.2695C20.4147 34.8633 19.957 35.3828 19.3633 35.8281C18.7695 36.2734 18.0273 36.4961 17.1367 36.4961C16.1966 36.4961 15.3184 36.36 14.502 36.0879C13.6855 35.8405 12.9186 35.5312 12.2012 35.1602C11.4837 34.7891 10.8034 34.3809 10.1602 33.9355C9.54167 33.515 8.96029 33.1191 8.41602 32.748C7.67383 33.4655 6.85742 34.0469 5.9668 34.4922C5.07617 34.9375 4.08659 35.1602 2.99805 35.1602C2.13216 35.1602 1.43945 34.9128 0.919922 34.418C0.400391 33.9479 0.165365 33.3047 0.214844 32.4883C0.239583 32.1914 0.326172 31.8327 0.474609 31.4121C0.623047 31.0163 0.907552 30.6328 1.32812 30.2617C1.72396 29.8906 2.2806 29.569 2.99805 29.2969C3.71549 29.0495 4.64323 28.9258 5.78125 28.9258C6.20182 28.9258 6.59766 28.9629 6.96875 29.0371C7.36458 29.1361 7.74805 29.2474 8.11914 29.3711C8.39128 28.8763 8.66341 28.3073 8.93555 27.6641C9.20768 27.0208 9.50456 26.291 9.82617 25.4746C10.3952 23.916 10.89 22.3574 11.3105 20.7988C11.7311 19.2155 12.0898 17.6816 12.3867 16.1973C12.0404 16.2715 11.6693 16.321 11.2734 16.3457C10.9023 16.3704 10.5189 16.3828 10.123 16.3828ZM3.96289 33.1562C4.28451 33.0326 4.6556 32.9089 5.07617 32.7852C5.49674 32.6615 5.97917 32.3151 6.52344 31.7461C6.15234 31.6224 5.86784 31.5605 5.66992 31.5605C4.7793 31.5605 4.13607 31.6842 3.74023 31.9316C3.31966 32.2038 3.10938 32.4635 3.10938 32.7109C3.10938 32.8841 3.18359 33.0078 3.33203 33.082C3.48047 33.181 3.69076 33.2057 3.96289 33.1562ZM17.9902 7.32812C17.8665 7.69922 17.7057 8.24349 17.5078 8.96094C17.3099 9.67839 17.0996 10.5072 16.877 11.4473C18.2129 10.5814 19.2767 9.5918 20.0684 8.47852C20.8848 7.36523 21.293 6.25195 21.293 5.13867C21.293 4.4707 21.0951 4.13672 20.6992 4.13672C20.3529 4.13672 19.9076 4.40885 19.3633 4.95312C18.819 5.47266 18.3613 6.26432 17.9902 7.32812ZM30.8672 7.14258C30.793 7.41471 30.6445 7.68685 30.4219 7.95898C30.224 8.20638 29.9889 8.41667 29.7168 8.58984C29.4694 8.73828 29.2096 8.83724 28.9375 8.88672C28.6654 8.9362 28.4427 8.88672 28.2695 8.73828C27.75 8.34245 27.4779 7.92188 27.4531 7.47656C27.4284 7.00651 27.5397 6.57357 27.7871 6.17773C28.0345 5.75716 28.3438 5.41081 28.7148 5.13867C29.0859 4.8418 29.4076 4.66862 29.6797 4.61914C29.9518 4.56966 30.1745 4.63151 30.3477 4.80469C30.5456 4.95312 30.694 5.16341 30.793 5.43555C30.8919 5.68294 30.9414 5.96745 30.9414 6.28906C30.9661 6.61068 30.9414 6.89518 30.8672 7.14258ZM25.7461 15.0469C25.8698 14.8984 26.1048 14.7747 26.4512 14.6758C26.7975 14.5768 27.1562 14.5026 27.5273 14.4531C27.8984 14.3789 28.2324 14.3418 28.5293 14.3418C28.8509 14.3171 29.0365 14.3171 29.0859 14.3418C29.1107 14.3665 29.0488 14.6263 28.9004 15.1211C28.752 15.6159 28.5664 16.1973 28.3438 16.8652C28.1211 17.5332 27.8861 18.2259 27.6387 18.9434C27.3913 19.6361 27.2057 20.2051 27.082 20.6504C26.9583 21.0957 26.8099 21.6029 26.6367 22.1719C26.4635 22.7161 26.3027 23.2604 26.1543 23.8047C26.0306 24.3242 25.944 24.819 25.8945 25.2891C25.8451 25.7591 25.8822 26.1178 26.0059 26.3652C26.1296 26.6621 26.2656 26.8724 26.4141 26.9961C26.5625 27.0951 26.7233 27.1445 26.8965 27.1445C27.3913 27.1445 28.0098 26.8724 28.752 26.3281C29.5189 25.7839 30.2858 25.1406 31.0527 24.3984C31.8444 23.6315 32.5742 22.8646 33.2422 22.0977C33.9102 21.306 34.4049 20.6751 34.7266 20.2051C34.9245 19.9577 35.1224 19.7969 35.3203 19.7227C35.543 19.6484 35.7161 19.6608 35.8398 19.7598C35.9883 19.8587 36.0625 20.0195 36.0625 20.2422C36.0872 20.4648 36.013 20.7246 35.8398 21.0215C35.444 21.7142 34.8626 22.543 34.0957 23.5078C33.3288 24.4479 32.5124 25.3633 31.6465 26.2539C30.7806 27.1198 29.9271 27.862 29.0859 28.4805C28.2695 29.099 27.6016 29.4206 27.082 29.4453C26.6615 29.4701 26.2409 29.3958 25.8203 29.2227C25.4245 29.0742 25.0534 28.8639 24.707 28.5918C24.3854 28.2949 24.1133 27.9609 23.8906 27.5898C23.668 27.194 23.5443 26.7858 23.5195 26.3652C23.4453 25.7467 23.4453 24.9056 23.5195 23.8418C23.5938 22.7533 23.7298 21.6523 23.9277 20.5391C24.1257 19.401 24.373 18.3249 24.6699 17.3105C24.9915 16.2962 25.3503 15.5417 25.7461 15.0469ZM32.5742 28.4062C33.6628 23.8294 34.5286 20.1556 35.1719 17.3848C35.8398 14.6139 36.347 12.4987 36.6934 11.0391C37.0892 9.30729 37.3613 8.10742 37.5098 7.43945C37.584 6.9694 37.6458 6.51172 37.6953 6.06641C37.7448 5.67057 37.7695 5.26237 37.7695 4.8418C37.7695 4.42122 37.7324 4.03776 37.6582 3.69141C37.8561 3.56771 38.0664 3.46875 38.2891 3.39453C38.5365 3.32031 38.7715 3.25846 38.9941 3.20898C39.2663 3.13477 39.5384 3.07292 39.8105 3.02344C40.0827 2.97396 40.3301 2.94922 40.5527 2.94922C40.7507 2.94922 40.9362 2.97396 41.1094 3.02344C41.2826 3.04818 41.3939 3.1224 41.4434 3.24609C41.5918 3.36979 41.6536 3.61719 41.6289 3.98828C41.6289 4.35938 41.6042 4.74284 41.5547 5.13867C41.4557 5.60872 41.3444 6.11589 41.2207 6.66016C40.9238 7.72396 40.5156 9.25781 39.9961 11.2617C39.5508 12.9688 38.9447 15.2943 38.1777 18.2383C37.4355 21.1823 36.4954 24.8932 35.3574 29.3711C35.2337 29.4948 35.0853 29.5814 34.9121 29.6309C34.7389 29.6803 34.5781 29.7051 34.4297 29.7051C34.2565 29.7051 34.071 29.6927 33.873 29.668C33.6999 29.6185 33.5267 29.5443 33.3535 29.4453C33.2051 29.3464 33.0566 29.2103 32.9082 29.0371C32.7598 28.8887 32.6484 28.6784 32.5742 28.4062ZM49.6074 7.14258C49.5332 7.41471 49.3848 7.68685 49.1621 7.95898C48.9642 8.20638 48.7292 8.41667 48.457 8.58984C48.2096 8.73828 47.9499 8.83724 47.6777 8.88672C47.4056 8.9362 47.1829 8.88672 47.0098 8.73828C46.4902 8.34245 46.2181 7.92188 46.1934 7.47656C46.1686 7.00651 46.2799 6.57357 46.5273 6.17773C46.7747 5.75716 47.084 5.41081 47.4551 5.13867C47.8262 4.8418 48.1478 4.66862 48.4199 4.61914C48.6921 4.56966 48.9147 4.63151 49.0879 4.80469C49.2858 4.95312 49.4342 5.16341 49.5332 5.43555C49.6322 5.68294 49.6816 5.96745 49.6816 6.28906C49.7064 6.61068 49.6816 6.89518 49.6074 7.14258ZM44.4863 15.0469C44.61 14.8984 44.8451 14.7747 45.1914 14.6758C45.5378 14.5768 45.8965 14.5026 46.2676 14.4531C46.6387 14.3789 46.9727 14.3418 47.2695 14.3418C47.5911 14.3171 47.7767 14.3171 47.8262 14.3418C47.8509 14.3665 47.7891 14.6263 47.6406 15.1211C47.4922 15.6159 47.3066 16.1973 47.084 16.8652C46.8613 17.5332 46.6263 18.2259 46.3789 18.9434C46.1315 19.6361 45.946 20.2051 45.8223 20.6504C45.6986 21.0957 45.5501 21.6029 45.377 22.1719C45.2038 22.7161 45.043 23.2604 44.8945 23.8047C44.7708 24.3242 44.6842 24.819 44.6348 25.2891C44.5853 25.7591 44.6224 26.1178 44.7461 26.3652C44.8698 26.6621 45.0059 26.8724 45.1543 26.9961C45.3027 27.0951 45.4635 27.1445 45.6367 27.1445C46.1315 27.1445 46.75 26.8724 47.4922 26.3281C48.2591 25.7839 49.026 25.1406 49.793 24.3984C50.5846 23.6315 51.3145 22.8646 51.9824 22.0977C52.6504 21.306 53.1452 20.6751 53.4668 20.2051C53.6647 19.9577 53.8626 19.7969 54.0605 19.7227C54.2832 19.6484 54.4564 19.6608 54.5801 19.7598C54.7285 19.8587 54.8027 20.0195 54.8027 20.2422C54.8275 20.4648 54.7533 20.7246 54.5801 21.0215C54.1842 21.7142 53.6029 22.543 52.8359 23.5078C52.069 24.4479 51.2526 25.3633 50.3867 26.2539C49.5208 27.1198 48.6673 27.862 47.8262 28.4805C47.0098 29.099 46.3418 29.4206 45.8223 29.4453C45.4017 29.4701 44.9811 29.3958 44.5605 29.2227C44.1647 29.0742 43.7936 28.8639 43.4473 28.5918C43.1257 28.2949 42.8535 27.9609 42.6309 27.5898C42.4082 27.194 42.2845 26.7858 42.2598 26.3652C42.1855 25.7467 42.1855 24.9056 42.2598 23.8418C42.334 22.7533 42.4701 21.6523 42.668 20.5391C42.8659 19.401 43.1133 18.3249 43.4102 17.3105C43.7318 16.2962 44.0905 15.5417 44.4863 15.0469ZM49.9785 34.3066C50.0775 34.2324 50.2383 34.1087 50.4609 33.9355C50.6589 33.7624 50.9062 33.4408 51.2031 32.9707C51.4753 32.5007 51.7845 31.8203 52.1309 30.9297C52.4772 30.0391 52.8359 28.8268 53.207 27.293C53.4049 26.4766 53.6647 25.4375 53.9863 24.1758C54.3079 22.9141 54.6543 21.5658 55.0254 20.1309C55.4212 18.696 55.8171 17.224 56.2129 15.7148C56.6087 14.181 56.9922 12.7337 57.3633 11.373C57.7344 9.98763 58.0684 8.73828 58.3652 7.625C58.6621 6.51172 58.8971 5.64583 59.0703 5.02734C58.6003 5.32422 58.1426 5.6582 57.6973 6.0293C57.3014 6.35091 56.8809 6.72201 56.4355 7.14258C55.9902 7.53841 55.5573 7.95898 55.1367 8.4043C54.8151 8.13216 54.5677 7.83529 54.3945 7.51367C54.2956 7.36523 54.209 7.20443 54.1348 7.03125C53.9863 6.66016 53.9121 6.27669 53.9121 5.88086C53.9121 5.48503 54.2214 5.07682 54.8398 4.65625C55.1615 4.43359 55.6439 4.11198 56.2871 3.69141C56.9551 3.27083 57.7715 2.86263 58.7363 2.4668C59.7012 2.04622 60.8268 1.6875 62.1133 1.39062C63.3997 1.09375 64.8223 0.945312 66.3809 0.945312C67.9395 0.945312 69.1888 1.25456 70.1289 1.87305C71.0938 2.49154 71.8236 3.24609 72.3184 4.13672C72.8379 5.02734 73.1719 5.96745 73.3203 6.95703C73.4688 7.94661 73.5059 8.8125 73.4316 9.55469C73.2832 10.9401 72.8379 12.3874 72.0957 13.8965C71.3535 15.4056 70.3268 16.8034 69.0156 18.0898C67.7044 19.3516 66.1087 20.4277 64.2285 21.3184C62.3483 22.209 60.196 22.7161 57.7715 22.8398C57.5736 23.7799 57.3757 24.7448 57.1777 25.7344C56.9798 26.724 56.7695 27.7012 56.5469 28.666C56.3242 29.6061 56.0892 30.4844 55.8418 31.3008C55.6191 32.1419 55.3841 32.8594 55.1367 33.4531C54.8893 34.0964 54.5677 34.6035 54.1719 34.9746C53.776 35.3704 53.1452 35.5684 52.2793 35.5684C51.834 35.5684 51.4258 35.457 51.0547 35.2344C50.6589 35.0117 50.3001 34.7025 49.9785 34.3066ZM58.7734 17.3848C58.6992 17.7806 58.6003 18.3001 58.4766 18.9434C58.3776 19.5618 58.2539 20.2669 58.1055 21.0586C58.7734 20.9596 59.5156 20.7865 60.332 20.5391C61.1484 20.2669 61.9648 19.9082 62.7812 19.4629C63.5977 19.0176 64.3893 18.4857 65.1562 17.8672C65.9479 17.224 66.6654 16.4941 67.3086 15.6777C67.9518 14.8366 68.4837 13.8965 68.9043 12.8574C69.3496 11.7936 69.6341 10.6185 69.7578 9.33203C69.8815 8.09505 69.8073 7.06836 69.5352 6.25195C69.2878 5.41081 68.9167 4.74284 68.4219 4.24805C67.9271 3.72852 67.3581 3.36979 66.7148 3.17188C66.0716 2.94922 65.4284 2.83789 64.7852 2.83789C64.1667 2.83789 63.5605 2.92448 62.9668 3.09766C62.373 3.27083 61.7793 3.49349 61.1855 3.76562C61.2598 3.79036 61.3464 3.85221 61.4453 3.95117C61.5938 4.09961 61.7051 4.3099 61.7793 4.58203C61.1855 6.98177 60.6908 8.98568 60.2949 10.5938C59.9238 12.2018 59.627 13.513 59.4043 14.5273C59.1322 15.7148 58.9219 16.6673 58.7734 17.3848ZM92.0234 20.8359C92.1966 20.638 92.3698 20.5391 92.543 20.5391C92.7409 20.5143 92.8893 20.5638 92.9883 20.6875C93.112 20.7865 93.1615 20.9473 93.1367 21.1699C93.1367 21.3926 93.0378 21.64 92.8398 21.9121C92.3698 22.5553 91.8255 23.2233 91.207 23.916C90.5885 24.584 89.9206 25.2396 89.2031 25.8828C88.5104 26.526 87.8053 27.1322 87.0879 27.7012C86.3704 28.2702 85.6777 28.7402 85.0098 29.1113C84.2676 29.5319 83.6367 29.7422 83.1172 29.7422C82.6224 29.7422 82.1276 29.4206 81.6328 28.7773C81.1875 28.2083 80.9648 27.6022 80.9648 26.959C80.9896 26.291 81.138 25.4622 81.4102 24.4727C81.5833 23.8542 81.8184 23.1243 82.1152 22.2832C82.4368 21.4173 82.6842 20.5885 82.8574 19.7969C83.0553 19.0052 83.1172 18.3372 83.043 17.793C82.9688 17.224 82.6471 16.9395 82.0781 16.9395C81.6823 16.9395 81.2493 17.0755 80.7793 17.3477C80.334 17.6198 79.8763 17.9785 79.4062 18.4238C78.9609 18.8444 78.528 19.3268 78.1074 19.8711C77.6868 20.4154 77.3158 20.9473 76.9941 21.4668C76.7962 22.4316 76.5983 23.3841 76.4004 24.3242C76.2272 25.1159 76.0417 25.9818 75.8438 26.9219C75.6706 27.8372 75.4974 28.6536 75.3242 29.3711C75.1758 29.4948 75.015 29.5814 74.8418 29.6309C74.6686 29.6803 74.5078 29.7051 74.3594 29.7051C74.1862 29.7051 74.013 29.6927 73.8398 29.668C73.6419 29.6185 73.4564 29.5443 73.2832 29.4453C73.1348 29.3464 72.9863 29.2103 72.8379 29.0371C72.6895 28.8887 72.5781 28.6784 72.5039 28.4062C73.6172 23.8294 74.4954 20.1556 75.1387 17.3848C75.7819 14.6139 76.2767 12.4987 76.623 11.0391C77.0189 9.30729 77.291 8.10742 77.4395 7.43945C77.5137 6.9694 77.5755 6.51172 77.625 6.06641C77.6745 5.67057 77.6992 5.26237 77.6992 4.8418C77.6992 4.42122 77.6621 4.03776 77.5879 3.69141C77.7858 3.56771 77.9961 3.46875 78.2188 3.39453C78.4661 3.32031 78.7012 3.25846 78.9238 3.20898C79.196 3.13477 79.4681 3.07292 79.7402 3.02344C80.0124 2.97396 80.2598 2.94922 80.4824 2.94922C80.6803 2.94922 80.8659 2.97396 81.0391 3.02344C81.2122 3.04818 81.3236 3.1224 81.373 3.24609C81.5215 3.36979 81.5833 3.61719 81.5586 3.98828C81.5586 4.35938 81.5339 4.74284 81.4844 5.13867C81.3854 5.60872 81.2741 6.11589 81.1504 6.66016C80.6309 8.66406 80.0495 10.6185 79.4062 12.5234C78.763 14.4036 78.1693 16.4199 77.625 18.5723C77.9466 18.0775 78.3301 17.5703 78.7754 17.0508C79.2207 16.5312 79.7031 16.0612 80.2227 15.6406C80.7669 15.1953 81.3359 14.8366 81.9297 14.5645C82.5234 14.2676 83.1543 14.1191 83.8223 14.1191C84.1686 14.1191 84.4902 14.181 84.7871 14.3047C85.1087 14.4036 85.3809 14.5892 85.6035 14.8613C85.8509 15.1087 86.0365 15.4551 86.1602 15.9004C86.2839 16.321 86.3333 16.8529 86.3086 17.4961C86.3086 17.8919 86.2591 18.3001 86.1602 18.7207C86.0859 19.1413 85.9746 19.6113 85.8262 20.1309C85.6777 20.6257 85.4798 21.1823 85.2324 21.8008C85.0098 22.4193 84.7376 23.1367 84.416 23.9531C84.1934 24.5221 84.0202 25.0046 83.8965 25.4004C83.7728 25.7962 83.7975 26.1426 83.9707 26.4395C84.1934 26.8353 84.6263 26.9342 85.2695 26.7363C85.9375 26.5137 86.9271 25.8704 88.2383 24.8066C88.5352 24.5592 88.8691 24.25 89.2402 23.8789C89.6113 23.5078 89.9701 23.1367 90.3164 22.7656C90.6628 22.3698 90.9844 21.9987 91.2812 21.6523C91.5781 21.306 91.8255 21.0339 92.0234 20.8359ZM101.561 23.0996C101.313 24.0397 100.979 24.918 100.559 25.7344C100.138 26.5508 99.6309 27.2559 99.0371 27.8496C98.4681 28.4434 97.8125 28.901 97.0703 29.2227C96.3529 29.569 95.5612 29.7422 94.6953 29.7422C93.681 29.7422 92.877 29.5195 92.2832 29.0742C91.7142 28.6536 91.2812 28.1217 90.9844 27.4785C90.7122 26.8353 90.5514 26.1302 90.502 25.3633C90.4277 24.5964 90.3906 23.8789 90.3906 23.2109C90.3906 22.7409 90.4525 22.2214 90.5762 21.6523C90.6751 21.0833 90.8236 20.502 91.0215 19.9082C91.2194 19.3145 91.4668 18.7207 91.7637 18.127C92.0853 17.5332 92.4564 16.9889 92.877 16.4941C93.0254 16.0736 93.248 15.7025 93.5449 15.3809C93.8665 15.0592 94.2253 14.7995 94.6211 14.6016C95.0417 14.3789 95.487 14.2181 95.957 14.1191C96.4271 13.9954 96.8848 13.9336 97.3301 13.9336C97.4043 13.9336 97.4661 13.946 97.5156 13.9707C97.5898 13.9954 97.6641 14.0202 97.7383 14.0449C98.0599 14.0697 98.4557 14.1934 98.9258 14.416C99.4206 14.6387 99.8906 14.9727 100.336 15.418C100.806 15.8633 101.202 16.4323 101.523 17.125C101.845 17.793 102.006 18.6094 102.006 19.5742C102.006 19.7721 101.993 20.0195 101.969 20.3164C101.944 20.5885 101.919 20.8236 101.895 21.0215C102.464 20.7988 103.057 20.5267 103.676 20.2051C104.294 19.8835 104.888 19.5495 105.457 19.2031C106.051 18.832 106.595 18.4609 107.09 18.0898C107.585 17.7188 107.98 17.3848 108.277 17.0879C108.525 16.8652 108.735 16.7415 108.908 16.7168C109.081 16.6921 109.205 16.7415 109.279 16.8652C109.354 16.9889 109.366 17.1621 109.316 17.3848C109.267 17.6074 109.131 17.8548 108.908 18.127C108.785 18.2754 108.463 18.5723 107.943 19.0176C107.449 19.4629 106.855 19.9453 106.162 20.4648C105.469 20.9844 104.715 21.4915 103.898 21.9863C103.082 22.4811 102.303 22.8522 101.561 23.0996ZM95.2891 17.459C95.2148 17.6816 95.1777 17.9167 95.1777 18.1641C95.1777 18.5599 95.2025 18.9805 95.252 19.4258C95.3014 19.8464 95.4251 20.2298 95.623 20.5762C95.821 20.9225 96.1302 21.2194 96.5508 21.4668C96.9961 21.6895 97.6022 21.8008 98.3691 21.8008C98.4928 21.8008 98.6165 21.8008 98.7402 21.8008C98.8639 21.776 98.9876 21.7513 99.1113 21.7266C99.1855 21.4049 99.2474 21.1204 99.2969 20.873C99.3711 20.6009 99.4082 20.3659 99.4082 20.168C99.4577 19.6979 99.4577 19.2155 99.4082 18.7207C99.3587 18.2259 99.2598 17.7806 99.1113 17.3848C98.9876 16.9642 98.8145 16.6302 98.5918 16.3828C98.3939 16.1107 98.1465 15.9746 97.8496 15.9746C97.3796 15.9746 96.9219 16.1107 96.4766 16.3828C96.056 16.6302 95.6602 16.9889 95.2891 17.459ZM92.9141 23.9902C92.9141 24.4355 92.9388 24.8809 92.9883 25.3262C93.0378 25.7467 93.1367 26.1302 93.2852 26.4766C93.4336 26.7982 93.6315 27.0703 93.8789 27.293C94.1263 27.4909 94.4479 27.5898 94.8438 27.5898C95.2891 27.5898 95.6973 27.4909 96.0684 27.293C96.4395 27.0703 96.7734 26.7982 97.0703 26.4766C97.3672 26.1302 97.627 25.7467 97.8496 25.3262C98.097 24.8809 98.3073 24.4232 98.4805 23.9531C98.3073 23.9779 98.1341 24.0026 97.9609 24.0273C97.8125 24.0273 97.6393 24.0273 97.4414 24.0273C96.5013 24.0273 95.6849 23.7552 94.9922 23.2109C94.3242 22.6419 93.8047 21.9245 93.4336 21.0586C93.2852 21.5781 93.1615 22.0853 93.0625 22.5801C92.9635 23.0749 92.9141 23.5449 92.9141 23.9902ZM119.225 19.6113C119.324 19.4629 119.447 19.3763 119.596 19.3516C119.769 19.3021 119.905 19.3145 120.004 19.3887C120.103 19.4629 120.152 19.5866 120.152 19.7598C120.177 19.9329 120.115 20.168 119.967 20.4648C119.472 21.4049 118.816 22.4193 118 23.5078C117.208 24.5964 116.367 25.623 115.477 26.5879C114.586 27.528 113.72 28.3073 112.879 28.9258C112.038 29.5443 111.333 29.8535 110.764 29.8535C109.947 29.8535 109.267 29.6927 108.723 29.3711C108.178 29.0495 107.745 28.6536 107.424 28.1836C107.127 27.7135 106.917 27.2064 106.793 26.6621C106.669 26.0931 106.632 25.5736 106.682 25.1035C106.706 24.7077 106.793 24.0026 106.941 22.9883C107.09 21.9492 107.288 20.7617 107.535 19.4258C107.783 18.0651 108.055 16.6178 108.352 15.084C108.673 13.5254 109.007 12.0286 109.354 10.5938C108.933 10.6432 108.512 10.6927 108.092 10.7422C107.671 10.7917 107.288 10.8164 106.941 10.8164C106.15 10.8164 105.408 10.7298 104.715 10.5566C103.997 10.3587 103.465 10.1732 103.119 10C102.921 9.90104 102.835 9.76497 102.859 9.5918C102.884 9.39388 102.958 9.20833 103.082 9.03516C103.206 8.83724 103.367 8.67643 103.564 8.55273C103.738 8.4043 103.898 8.33008 104.047 8.33008C104.517 8.37956 105.024 8.42904 105.568 8.47852C106.113 8.50326 106.706 8.50326 107.35 8.47852C107.82 8.45378 108.265 8.41667 108.686 8.36719C109.131 8.31771 109.564 8.25586 109.984 8.18164C110.306 6.99414 110.615 5.96745 110.912 5.10156C111.234 4.21094 111.518 3.59245 111.766 3.24609C111.84 3.1224 112.001 3.02344 112.248 2.94922C112.52 2.85026 112.805 2.78841 113.102 2.76367C113.398 2.71419 113.683 2.71419 113.955 2.76367C114.227 2.78841 114.425 2.875 114.549 3.02344C114.673 3.22135 114.722 3.72852 114.697 4.54492C114.673 5.36133 114.536 6.40039 114.289 7.66211C115.328 7.66211 116.243 7.72396 117.035 7.84766C117.852 7.94661 118.544 8.07031 119.113 8.21875C119.682 8.34245 120.14 8.47852 120.486 8.62695C120.833 8.75065 121.092 8.83724 121.266 8.88672C121.439 8.9362 121.525 9.0599 121.525 9.25781C121.55 9.45573 121.513 9.66602 121.414 9.88867C121.34 10.0866 121.204 10.2598 121.006 10.4082C120.808 10.5566 120.585 10.6061 120.338 10.5566C120.09 10.5319 119.806 10.4824 119.484 10.4082C119.188 10.334 118.816 10.2721 118.371 10.2227C117.951 10.1732 117.443 10.1237 116.85 10.0742C116.256 10.0247 115.563 10 114.771 10C114.623 10 114.45 10.0124 114.252 10.0371C114.079 10.0371 113.893 10.0371 113.695 10.0371C113.596 10.4329 113.497 10.8288 113.398 11.2246C113.324 11.5957 113.213 11.9915 113.064 12.4121C112.743 13.4017 112.372 14.4779 111.951 15.6406C111.58 16.6549 111.135 17.8177 110.615 19.1289C110.096 20.4401 109.514 21.8379 108.871 23.3223C108.723 24.3861 108.735 25.2025 108.908 25.7715C109.106 26.3158 109.341 26.7116 109.613 26.959C109.935 27.2311 110.331 27.3796 110.801 27.4043C111.172 27.4538 111.617 27.3301 112.137 27.0332C112.681 26.7116 113.238 26.291 113.807 25.7715C114.376 25.252 114.945 24.6829 115.514 24.0645C116.107 23.446 116.652 22.8398 117.146 22.2461C117.641 21.6523 118.074 21.1204 118.445 20.6504C118.816 20.1556 119.076 19.8092 119.225 19.6113ZM127.982 23.0996C127.735 24.0397 127.401 24.918 126.98 25.7344C126.56 26.5508 126.053 27.2559 125.459 27.8496C124.89 28.4434 124.234 28.901 123.492 29.2227C122.775 29.569 121.983 29.7422 121.117 29.7422C120.103 29.7422 119.299 29.5195 118.705 29.0742C118.136 28.6536 117.703 28.1217 117.406 27.4785C117.134 26.8353 116.973 26.1302 116.924 25.3633C116.85 24.5964 116.812 23.8789 116.812 23.2109C116.812 22.7409 116.874 22.2214 116.998 21.6523C117.097 21.0833 117.245 20.502 117.443 19.9082C117.641 19.3145 117.889 18.7207 118.186 18.127C118.507 17.5332 118.878 16.9889 119.299 16.4941C119.447 16.0736 119.67 15.7025 119.967 15.3809C120.288 15.0592 120.647 14.7995 121.043 14.6016C121.464 14.3789 121.909 14.2181 122.379 14.1191C122.849 13.9954 123.307 13.9336 123.752 13.9336C123.826 13.9336 123.888 13.946 123.938 13.9707C124.012 13.9954 124.086 14.0202 124.16 14.0449C124.482 14.0697 124.878 14.1934 125.348 14.416C125.842 14.6387 126.312 14.9727 126.758 15.418C127.228 15.8633 127.624 16.4323 127.945 17.125C128.267 17.793 128.428 18.6094 128.428 19.5742C128.428 19.7721 128.415 20.0195 128.391 20.3164C128.366 20.5885 128.341 20.8236 128.316 21.0215C128.885 20.7988 129.479 20.5267 130.098 20.2051C130.716 19.8835 131.31 19.5495 131.879 19.2031C132.473 18.832 133.017 18.4609 133.512 18.0898C134.007 17.7188 134.402 17.3848 134.699 17.0879C134.947 16.8652 135.157 16.7415 135.33 16.7168C135.503 16.6921 135.627 16.7415 135.701 16.8652C135.775 16.9889 135.788 17.1621 135.738 17.3848C135.689 17.6074 135.553 17.8548 135.33 18.127C135.206 18.2754 134.885 18.5723 134.365 19.0176C133.87 19.4629 133.277 19.9453 132.584 20.4648C131.891 20.9844 131.137 21.4915 130.32 21.9863C129.504 22.4811 128.725 22.8522 127.982 23.0996ZM121.711 17.459C121.637 17.6816 121.6 17.9167 121.6 18.1641C121.6 18.5599 121.624 18.9805 121.674 19.4258C121.723 19.8464 121.847 20.2298 122.045 20.5762C122.243 20.9225 122.552 21.2194 122.973 21.4668C123.418 21.6895 124.024 21.8008 124.791 21.8008C124.915 21.8008 125.038 21.8008 125.162 21.8008C125.286 21.776 125.41 21.7513 125.533 21.7266C125.607 21.4049 125.669 21.1204 125.719 20.873C125.793 20.6009 125.83 20.3659 125.83 20.168C125.88 19.6979 125.88 19.2155 125.83 18.7207C125.781 18.2259 125.682 17.7806 125.533 17.3848C125.41 16.9642 125.236 16.6302 125.014 16.3828C124.816 16.1107 124.568 15.9746 124.271 15.9746C123.801 15.9746 123.344 16.1107 122.898 16.3828C122.478 16.6302 122.082 16.9889 121.711 17.459ZM119.336 23.9902C119.336 24.4355 119.361 24.8809 119.41 25.3262C119.46 25.7467 119.559 26.1302 119.707 26.4766C119.855 26.7982 120.053 27.0703 120.301 27.293C120.548 27.4909 120.87 27.5898 121.266 27.5898C121.711 27.5898 122.119 27.4909 122.49 27.293C122.861 27.0703 123.195 26.7982 123.492 26.4766C123.789 26.1302 124.049 25.7467 124.271 25.3262C124.519 24.8809 124.729 24.4232 124.902 23.9531C124.729 23.9779 124.556 24.0026 124.383 24.0273C124.234 24.0273 124.061 24.0273 123.863 24.0273C122.923 24.0273 122.107 23.7552 121.414 23.2109C120.746 22.6419 120.227 21.9245 119.855 21.0586C119.707 21.5781 119.583 22.0853 119.484 22.5801C119.385 23.0749 119.336 23.5449 119.336 23.9902ZM141.75 34.3066C141.626 34.9004 141.465 35.6426 141.268 36.5332C141.094 37.4238 140.884 38.3639 140.637 39.3535C140.414 40.3431 140.142 41.3203 139.82 42.2852C139.523 43.2747 139.189 44.153 138.818 44.9199C138.447 45.7116 138.039 46.3548 137.594 46.8496C137.148 47.3444 136.654 47.5918 136.109 47.5918C135.293 47.5918 134.588 47.3444 133.994 46.8496C133.425 46.3796 132.943 45.7734 132.547 45.0312C132.151 44.3138 131.867 43.5345 131.693 42.6934C131.495 41.8522 131.396 41.0729 131.396 40.3555C131.396 39.3659 131.483 38.5371 131.656 37.8691C131.829 37.2259 132.126 36.6074 132.547 36.0137C132.992 35.4199 133.586 34.7891 134.328 34.1211C135.07 33.4531 136.023 32.6243 137.186 31.6348C137.755 31.14 138.299 30.6699 138.818 30.2246C139.338 29.7793 139.833 29.3711 140.303 29C140.426 28.5052 140.538 28.0475 140.637 27.627C140.76 27.1816 140.859 26.7858 140.934 26.4395C140.29 27.3053 139.511 28.0352 138.596 28.6289C137.705 29.2227 136.678 29.5195 135.516 29.5195C134.452 29.5195 133.586 29.0495 132.918 28.1094C132.275 27.1445 131.953 25.7344 131.953 23.8789C131.953 22.9635 132.126 21.9121 132.473 20.7246C132.819 19.5371 133.314 18.4238 133.957 17.3848C134.6 16.3457 135.392 15.4674 136.332 14.75C137.272 14.0326 138.324 13.6738 139.486 13.6738C140.031 13.6738 140.501 13.8099 140.896 14.082C141.292 14.3542 141.626 14.7005 141.898 15.1211C142.171 15.5169 142.381 15.9499 142.529 16.4199C142.678 16.8652 142.789 17.2858 142.863 17.6816C142.913 17.5332 142.95 17.3848 142.975 17.2363C142.999 17.0632 143.036 16.9147 143.086 16.791C143.333 15.9499 143.605 15.3809 143.902 15.084C144.224 14.7624 144.694 14.6016 145.312 14.6016C145.659 14.6016 145.943 14.6634 146.166 14.7871C146.413 14.9108 146.537 15.0221 146.537 15.1211C146.413 15.3932 146.314 15.6035 146.24 15.752C146.166 15.9004 146.092 16.0612 146.018 16.2344C145.943 16.3828 145.869 16.5807 145.795 16.8281C145.721 17.0755 145.622 17.4342 145.498 17.9043C145.449 18.0775 145.35 18.4857 145.201 19.1289C145.077 19.7474 144.904 20.4896 144.682 21.3555C144.484 22.2214 144.261 23.1738 144.014 24.2129C143.791 25.252 143.568 26.2663 143.346 27.2559C144.038 26.86 144.756 26.3776 145.498 25.8086C146.24 25.2396 146.945 24.6582 147.613 24.0645C148.281 23.4707 148.875 22.9141 149.395 22.3945C149.914 21.8503 150.298 21.4049 150.545 21.0586C150.743 20.7617 150.965 20.5514 151.213 20.4277C151.46 20.304 151.671 20.2669 151.844 20.3164C152.042 20.3411 152.153 20.4525 152.178 20.6504C152.227 20.8236 152.153 21.071 151.955 21.3926C151.386 22.3079 150.693 23.1986 149.877 24.0645C149.061 24.9056 148.219 25.6973 147.354 26.4395C146.512 27.1569 145.684 27.8001 144.867 28.3691C144.076 28.9134 143.395 29.3587 142.826 29.7051C142.579 30.8184 142.368 31.7214 142.195 32.4141C142.022 33.1068 141.874 33.7376 141.75 34.3066ZM137.074 26.9961C137.594 26.9961 138.076 26.86 138.521 26.5879C138.992 26.3158 139.412 26.0065 139.783 25.6602C140.154 25.2891 140.464 24.918 140.711 24.5469C140.958 24.1758 141.144 23.8789 141.268 23.6562C141.367 23.4336 141.478 23.1367 141.602 22.7656C141.75 22.3945 141.861 22.0358 141.936 21.6895C142.01 21.3431 142.035 21.0339 142.01 20.7617C142.01 20.4896 141.923 20.3411 141.75 20.3164C141.602 20.2917 141.478 20.1927 141.379 20.0195C141.305 19.8464 141.243 19.6484 141.193 19.4258C141.144 19.2031 141.107 18.9805 141.082 18.7578C141.082 18.5352 141.07 18.3372 141.045 18.1641C140.921 17.2982 140.711 16.6673 140.414 16.2715C140.117 15.8757 139.783 15.6777 139.412 15.6777C138.794 15.6777 138.2 15.9251 137.631 16.4199C137.087 16.9147 136.592 17.5579 136.146 18.3496C135.726 19.1165 135.392 19.9701 135.145 20.9102C134.897 21.8255 134.773 22.7038 134.773 23.5449C134.773 24.584 134.922 25.4251 135.219 26.0684C135.516 26.6868 136.134 26.9961 137.074 26.9961ZM135.367 44.2148C135.862 44.2148 136.258 43.8438 136.555 43.1016C136.876 42.3841 137.21 41.3945 137.557 40.1328C137.631 39.8359 137.73 39.403 137.854 38.834C138.002 38.2897 138.163 37.6589 138.336 36.9414C138.534 36.224 138.732 35.4447 138.93 34.6035C139.128 33.7871 139.338 32.9583 139.561 32.1172C139.363 32.2904 139.152 32.4635 138.93 32.6367C138.732 32.8346 138.521 33.0573 138.299 33.3047C137.755 33.8242 137.223 34.319 136.703 34.7891C136.208 35.2839 135.763 35.791 135.367 36.3105C134.971 36.8548 134.65 37.4362 134.402 38.0547C134.18 38.6732 134.068 39.3906 134.068 40.207C134.068 41.0234 134.093 41.6914 134.143 42.2109C134.217 42.7305 134.303 43.1387 134.402 43.4355C134.526 43.7324 134.662 43.9303 134.811 44.0293C134.984 44.153 135.169 44.2148 135.367 44.2148ZM148.021 28.8145C147.848 29.0866 147.663 29.2598 147.465 29.334C147.242 29.4329 147.057 29.4453 146.908 29.3711C146.735 29.3216 146.624 29.1979 146.574 29C146.525 28.8021 146.574 28.5547 146.723 28.2578C146.797 28.1094 146.97 27.7754 147.242 27.2559C147.49 26.7363 147.799 26.1178 148.17 25.4004C148.516 24.6582 148.9 23.8665 149.32 23.0254C149.741 22.1595 150.137 21.3431 150.508 20.5762C150.904 19.8092 151.262 19.1289 151.584 18.5352C151.906 17.9167 152.141 17.4714 152.289 17.1992C152.017 16.9518 151.831 16.7786 151.732 16.6797C151.633 16.556 151.559 16.3086 151.51 15.9375C151.46 15.6159 151.535 15.1953 151.732 14.6758C151.93 14.1562 152.19 13.6615 152.512 13.1914C152.833 12.6966 153.192 12.276 153.588 11.9297C153.984 11.5833 154.367 11.4102 154.738 11.4102C155.431 11.4102 155.913 11.6328 156.186 12.0781C156.482 12.5234 156.656 12.9811 156.705 13.4512C156.755 13.7728 156.73 14.181 156.631 14.6758C156.532 15.1706 156.346 15.6159 156.074 16.0117C156.148 16.0612 156.247 16.123 156.371 16.1973C156.495 16.2467 156.693 16.2715 156.965 16.2715C157.361 16.2715 157.633 16.2467 157.781 16.1973C157.954 16.1478 158.214 16.123 158.561 16.123C158.981 16.123 159.327 16.2344 159.6 16.457C159.872 16.6549 160.094 16.9147 160.268 17.2363C160.441 17.5332 160.564 17.8672 160.639 18.2383C160.738 18.5846 160.799 18.9062 160.824 19.2031C160.898 19.8216 160.738 20.4648 160.342 21.1328C159.946 21.8008 159.464 22.5306 158.895 23.3223C158.548 23.8171 158.202 24.3737 157.855 24.9922C157.509 25.6107 157.361 26.1673 157.41 26.6621C157.46 26.9837 157.546 27.2435 157.67 27.4414C157.794 27.6393 158.14 27.7383 158.709 27.7383C159.13 27.7383 159.587 27.5898 160.082 27.293C160.602 26.9714 161.121 26.5755 161.641 26.1055C162.185 25.6107 162.717 25.0788 163.236 24.5098C163.756 23.916 164.238 23.347 164.684 22.8027C165.129 22.2337 165.5 21.7266 165.797 21.2812C166.118 20.8359 166.354 20.5143 166.502 20.3164C166.626 20.1185 166.786 19.9824 166.984 19.9082C167.182 19.834 167.355 19.834 167.504 19.9082C167.652 19.9824 167.739 20.1309 167.764 20.3535C167.813 20.5762 167.727 20.873 167.504 21.2441C167.355 21.4915 167.096 21.8874 166.725 22.4316C166.378 22.9759 165.945 23.582 165.426 24.25C164.931 24.918 164.374 25.6107 163.756 26.3281C163.137 27.0208 162.482 27.6641 161.789 28.2578C161.121 28.8268 160.441 29.2969 159.748 29.668C159.08 30.0391 158.437 30.2246 157.818 30.2246C157.175 30.2246 156.643 30.1009 156.223 29.8535C155.802 29.6061 155.456 29.3092 155.184 28.9629C154.936 28.5918 154.751 28.196 154.627 27.7754C154.528 27.3301 154.491 26.9219 154.516 26.5508C154.54 26.2539 154.615 25.9447 154.738 25.623C154.887 25.2767 155.048 24.9303 155.221 24.584C155.419 24.2129 155.617 23.8542 155.814 23.5078C156.037 23.1367 156.235 22.778 156.408 22.4316C156.829 21.7142 157.163 21.1081 157.41 20.6133C157.682 20.0938 157.818 19.6608 157.818 19.3145C157.818 19.0918 157.769 18.8939 157.67 18.7207C157.571 18.5475 157.41 18.4609 157.188 18.4609C157.039 18.4609 156.928 18.4733 156.854 18.498C156.804 18.498 156.742 18.498 156.668 18.498C156.618 18.498 156.532 18.5104 156.408 18.5352C156.309 18.5352 156.148 18.5352 155.926 18.5352C155.604 18.5352 155.332 18.4857 155.109 18.3867C154.887 18.2878 154.676 18.2135 154.479 18.1641C154.38 18.3372 154.157 18.7083 153.811 19.2773C153.464 19.8464 153.056 20.5143 152.586 21.2812C152.141 22.0482 151.658 22.8522 151.139 23.6934C150.644 24.5345 150.174 25.3262 149.729 26.0684C149.283 26.7858 148.912 27.4043 148.615 27.9238C148.294 28.4186 148.096 28.7155 148.021 28.8145ZM183.906 21.6152C183.56 22.11 183.115 22.7285 182.57 23.4707C182.026 24.1882 181.457 24.918 180.863 25.6602C180.294 26.3776 179.725 27.0456 179.156 27.6641C178.612 28.2578 178.154 28.6784 177.783 28.9258C177.536 29.0742 177.251 29.1979 176.93 29.2969C176.608 29.3958 176.274 29.4577 175.928 29.4824C175.606 29.5072 175.297 29.4824 175 29.4082C174.703 29.3587 174.443 29.2598 174.221 29.1113C173.998 28.9382 173.812 28.6908 173.664 28.3691C173.54 28.097 173.417 27.7383 173.293 27.293C173.194 26.8477 173.157 26.291 173.182 25.623C172.588 26.6126 171.932 27.3796 171.215 27.9238C170.497 28.4434 169.817 28.8268 169.174 29.0742C168.432 29.3464 167.689 29.5072 166.947 29.5566C166.601 29.5566 166.23 29.4329 165.834 29.1855C165.438 28.9629 165.104 28.6042 164.832 28.1094C164.56 27.5898 164.387 26.9342 164.312 26.1426C164.238 25.3262 164.337 24.3613 164.609 23.248C164.956 21.7389 165.5 20.3659 166.242 19.1289C167.009 17.8919 167.838 16.8405 168.729 15.9746C169.619 15.084 170.497 14.416 171.363 13.9707C172.229 13.5254 172.947 13.3275 173.516 13.377C174.184 13.5007 174.728 13.6986 175.148 13.9707C175.495 14.2181 175.717 14.5892 175.816 15.084C175.94 15.554 175.742 16.1849 175.223 16.9766C175.569 16.9023 175.854 16.8529 176.076 16.8281C176.324 16.8034 176.509 16.791 176.633 16.791C176.781 16.791 176.88 16.8034 176.93 16.8281C176.954 16.8776 176.967 16.9889 176.967 17.1621C176.967 17.3105 176.93 17.5951 176.855 18.0156C176.781 18.4362 176.67 19.0052 176.521 19.7227C176.373 20.4401 176.175 21.3678 175.928 22.5059C175.878 22.7285 175.829 22.9388 175.779 23.1367C175.755 23.3099 175.717 23.4954 175.668 23.6934C175.643 23.8665 175.606 24.0768 175.557 24.3242C175.507 24.5716 175.445 24.8809 175.371 25.252C175.346 25.4746 175.334 25.722 175.334 25.9941C175.359 26.2415 175.408 26.4766 175.482 26.6992C175.557 26.9219 175.668 27.1074 175.816 27.2559C175.99 27.3796 176.225 27.4414 176.521 27.4414C176.769 27.4414 177.09 27.293 177.486 26.9961C177.882 26.6745 178.303 26.2786 178.748 25.8086C179.193 25.3138 179.651 24.7819 180.121 24.2129C180.616 23.6191 181.074 23.0501 181.494 22.5059C181.915 21.9616 182.286 21.4792 182.607 21.0586C182.954 20.638 183.201 20.3288 183.35 20.1309C183.548 19.9082 183.745 19.7845 183.943 19.7598C184.141 19.7103 184.29 19.7598 184.389 19.9082C184.488 20.0566 184.5 20.2793 184.426 20.5762C184.376 20.873 184.203 21.2194 183.906 21.6152ZM173.033 23.248C173.157 22.7533 173.305 22.1719 173.479 21.5039C173.652 20.8359 173.8 20.1927 173.924 19.5742C174.048 18.9557 174.134 18.4486 174.184 18.0527C174.258 17.6322 174.245 17.4342 174.146 17.459C174.023 17.4837 173.887 17.5208 173.738 17.5703C173.615 17.6198 173.454 17.6569 173.256 17.6816C173.058 17.7064 172.86 17.7435 172.662 17.793C172.86 17.3971 172.971 17.0755 172.996 16.8281C173.046 16.556 173.058 16.3457 173.033 16.1973C173.008 16.0241 172.959 15.888 172.885 15.7891C172.613 15.5664 172.13 15.752 171.438 16.3457C170.77 16.9147 169.99 17.9785 169.1 19.5371C168.729 20.1803 168.432 20.873 168.209 21.6152C167.986 22.3327 167.826 23.013 167.727 23.6562C167.652 24.2995 167.64 24.8685 167.689 25.3633C167.739 25.8333 167.838 26.1426 167.986 26.291C168.258 26.5632 168.568 26.6992 168.914 26.6992C169.26 26.6745 169.607 26.5755 169.953 26.4023C170.324 26.2044 170.683 25.957 171.029 25.6602C171.4 25.3633 171.722 25.054 171.994 24.7324C172.291 24.4108 172.526 24.1139 172.699 23.8418C172.897 23.5697 173.008 23.3717 173.033 23.248ZM178.748 44.8457C178.575 44.7715 178.402 44.6602 178.229 44.5117C178.08 44.388 177.932 44.2272 177.783 44.0293C177.635 43.8561 177.511 43.6335 177.412 43.3613C178.105 40.7142 178.699 38.4134 179.193 36.459C179.663 34.5046 180.072 32.8717 180.418 31.5605C180.789 30.0267 181.111 28.7402 181.383 27.7012C181.63 26.7116 181.878 25.722 182.125 24.7324C182.323 23.8665 182.533 22.9388 182.756 21.9492C183.003 20.9596 183.226 20.0319 183.424 19.166C183.671 18.2012 183.82 17.4342 183.869 16.8652C183.919 16.2715 183.733 15.7643 183.312 15.3438C183.609 15.0964 183.906 14.9108 184.203 14.7871C184.525 14.6387 184.809 14.5397 185.057 14.4902C185.329 14.416 185.601 14.3913 185.873 14.416C186.541 14.4655 186.949 14.6758 187.098 15.0469C187.271 15.418 187.296 16.0117 187.172 16.8281C187.147 16.9518 187.122 17.0632 187.098 17.1621C187.098 17.2363 187.098 17.3229 187.098 17.4219C187.444 17.026 187.827 16.6426 188.248 16.2715C188.669 15.9004 189.089 15.5664 189.51 15.2695C189.955 14.9727 190.4 14.7376 190.846 14.5645C191.316 14.3665 191.761 14.2676 192.182 14.2676C192.751 14.2676 193.208 14.416 193.555 14.7129C193.926 14.985 194.21 15.3561 194.408 15.8262C194.606 16.2962 194.73 16.8281 194.779 17.4219C194.829 17.9909 194.841 18.5599 194.816 19.1289C194.792 19.7474 194.68 20.403 194.482 21.0957C194.309 21.7884 194.062 22.4935 193.74 23.2109C193.419 23.9284 193.048 24.6335 192.627 25.3262C192.206 26.0189 191.761 26.6621 191.291 27.2559C191.39 27.2806 191.452 27.3053 191.477 27.3301C191.501 27.3301 191.514 27.3424 191.514 27.3672C191.514 27.3672 191.526 27.3796 191.551 27.4043C191.6 27.4043 191.687 27.4043 191.811 27.4043C192.38 27.4043 192.961 27.2559 193.555 26.959C194.148 26.6621 194.73 26.291 195.299 25.8457C195.868 25.3757 196.412 24.8685 196.932 24.3242C197.476 23.7799 197.958 23.2604 198.379 22.7656C198.824 22.2461 199.195 21.7884 199.492 21.3926C199.789 20.972 200.012 20.6751 200.16 20.502C200.358 20.2546 200.544 20.0938 200.717 20.0195C200.89 19.9206 201.026 19.9082 201.125 19.9824C201.224 20.0566 201.273 20.2051 201.273 20.4277C201.273 20.6257 201.199 20.8854 201.051 21.207C200.952 21.4297 200.742 21.7884 200.42 22.2832C200.098 22.778 199.702 23.3346 199.232 23.9531C198.762 24.5716 198.218 25.2148 197.6 25.8828C197.006 26.5508 196.375 27.1569 195.707 27.7012C195.039 28.2454 194.346 28.6908 193.629 29.0371C192.936 29.4082 192.256 29.5938 191.588 29.5938C191.266 29.5938 191.007 29.5814 190.809 29.5566C190.611 29.5319 190.438 29.4824 190.289 29.4082C190.165 29.3587 190.042 29.2969 189.918 29.2227C189.794 29.1732 189.646 29.1113 189.473 29.0371C189.027 29.3835 188.57 29.6432 188.1 29.8164C187.63 30.0143 187.172 30.1133 186.727 30.1133C186.306 30.1133 185.935 30.0391 185.613 29.8906C185.316 29.7669 185.069 29.5814 184.871 29.334C184.673 29.1113 184.512 28.8639 184.389 28.5918C184.265 28.2949 184.166 28.0104 184.092 27.7383C184.067 27.8372 184.042 27.9238 184.018 27.998C184.018 28.0723 184.005 28.1712 183.98 28.2949C183.684 29.4824 183.374 30.8555 183.053 32.4141C182.781 33.75 182.447 35.3704 182.051 37.2754C181.68 39.2051 181.284 41.3945 180.863 43.8438C180.715 44.5117 180.455 44.8952 180.084 44.9941C179.688 45.0931 179.243 45.0436 178.748 44.8457ZM185.539 21.8379C185.415 22.2585 185.279 22.7533 185.131 23.3223C185.007 23.8665 184.859 24.5221 184.686 25.2891C184.883 25.1406 185.106 25.0293 185.354 24.9551C185.601 24.8809 185.848 24.8438 186.096 24.8438C186.368 24.8438 186.714 24.9922 187.135 25.2891C187.555 25.5612 188.062 25.8581 188.656 26.1797C189.027 25.7344 189.411 25.2396 189.807 24.6953C190.227 24.1263 190.598 23.5449 190.92 22.9512C191.266 22.3574 191.551 21.7513 191.773 21.1328C192.021 20.5143 192.157 19.9206 192.182 19.3516C192.231 18.6094 192.145 18.028 191.922 17.6074C191.699 17.1868 191.328 16.9766 190.809 16.9766C190.042 16.9766 189.201 17.4342 188.285 18.3496C187.395 19.2402 186.479 20.403 185.539 21.8379ZM217.713 20.8359C217.886 20.638 218.059 20.5391 218.232 20.5391C218.43 20.5143 218.579 20.5638 218.678 20.6875C218.801 20.7865 218.851 20.9473 218.826 21.1699C218.826 21.3926 218.727 21.64 218.529 21.9121C218.059 22.5553 217.515 23.2233 216.896 23.916C216.278 24.584 215.61 25.2396 214.893 25.8828C214.2 26.526 213.495 27.1322 212.777 27.7012C212.06 28.2702 211.367 28.7402 210.699 29.1113C209.957 29.5319 209.326 29.7422 208.807 29.7422C208.312 29.7422 207.817 29.4206 207.322 28.7773C206.877 28.2083 206.654 27.6022 206.654 26.959C206.679 26.291 206.827 25.4622 207.1 24.4727C207.273 23.8542 207.508 23.1243 207.805 22.2832C208.126 21.4173 208.374 20.5885 208.547 19.7969C208.745 19.0052 208.807 18.3372 208.732 17.793C208.658 17.224 208.337 16.9395 207.768 16.9395C207.372 16.9395 206.939 17.0755 206.469 17.3477C206.023 17.6198 205.566 17.9785 205.096 18.4238C204.65 18.8444 204.217 19.3268 203.797 19.8711C203.376 20.4154 203.005 20.9473 202.684 21.4668C202.486 22.4316 202.288 23.3841 202.09 24.3242C201.917 25.1159 201.731 25.9818 201.533 26.9219C201.36 27.8372 201.187 28.6536 201.014 29.3711C200.865 29.4948 200.704 29.5814 200.531 29.6309C200.358 29.6803 200.197 29.7051 200.049 29.7051C199.876 29.7051 199.702 29.6927 199.529 29.668C199.331 29.6185 199.146 29.5443 198.973 29.4453C198.824 29.3464 198.676 29.2103 198.527 29.0371C198.379 28.8887 198.268 28.6784 198.193 28.4062C199.307 23.8294 200.185 20.1556 200.828 17.3848C201.471 14.6139 201.966 12.4987 202.312 11.0391C202.708 9.30729 202.98 8.10742 203.129 7.43945C203.203 6.9694 203.265 6.51172 203.314 6.06641C203.364 5.67057 203.389 5.26237 203.389 4.8418C203.389 4.42122 203.352 4.03776 203.277 3.69141C203.475 3.56771 203.686 3.46875 203.908 3.39453C204.156 3.32031 204.391 3.25846 204.613 3.20898C204.885 3.13477 205.158 3.07292 205.43 3.02344C205.702 2.97396 205.949 2.94922 206.172 2.94922C206.37 2.94922 206.555 2.97396 206.729 3.02344C206.902 3.04818 207.013 3.1224 207.062 3.24609C207.211 3.36979 207.273 3.61719 207.248 3.98828C207.248 4.35938 207.223 4.74284 207.174 5.13867C207.075 5.60872 206.964 6.11589 206.84 6.66016C206.32 8.66406 205.739 10.6185 205.096 12.5234C204.452 14.4036 203.859 16.4199 203.314 18.5723C203.636 18.0775 204.02 17.5703 204.465 17.0508C204.91 16.5312 205.393 16.0612 205.912 15.6406C206.456 15.1953 207.025 14.8366 207.619 14.5645C208.213 14.2676 208.844 14.1191 209.512 14.1191C209.858 14.1191 210.18 14.181 210.477 14.3047C210.798 14.4036 211.07 14.5892 211.293 14.8613C211.54 15.1087 211.726 15.4551 211.85 15.9004C211.973 16.321 212.023 16.8529 211.998 17.4961C211.998 17.8919 211.949 18.3001 211.85 18.7207C211.775 19.1413 211.664 19.6113 211.516 20.1309C211.367 20.6257 211.169 21.1823 210.922 21.8008C210.699 22.4193 210.427 23.1367 210.105 23.9531C209.883 24.5221 209.71 25.0046 209.586 25.4004C209.462 25.7962 209.487 26.1426 209.66 26.4395C209.883 26.8353 210.316 26.9342 210.959 26.7363C211.627 26.5137 212.617 25.8704 213.928 24.8066C214.225 24.5592 214.559 24.25 214.93 23.8789C215.301 23.5078 215.66 23.1367 216.006 22.7656C216.352 22.3698 216.674 21.9987 216.971 21.6523C217.268 21.306 217.515 21.0339 217.713 20.8359ZM226.025 15.3438C226.347 15.0964 226.656 14.9108 226.953 14.7871C227.275 14.6387 227.559 14.5397 227.807 14.4902C228.079 14.416 228.351 14.3913 228.623 14.416C229.291 14.4655 229.699 14.6758 229.848 15.0469C230.021 15.418 230.046 16.0117 229.922 16.8281C229.848 17.2487 229.699 17.7806 229.477 18.4238C229.254 19.0671 228.994 19.8587 228.697 20.7988C228.4 21.7142 228.079 22.7656 227.732 23.9531C227.411 25.1406 227.102 26.4766 226.805 27.9609C226.508 29.1732 226.186 30.571 225.84 32.1543C225.543 33.5397 225.184 35.2096 224.764 37.1641C224.368 39.1185 223.935 41.3574 223.465 43.8809C223.341 44.4993 223.069 44.8581 222.648 44.957C222.253 45.056 221.832 45.0065 221.387 44.8086C221.214 44.7096 221.053 44.5983 220.904 44.4746C220.781 44.3509 220.645 44.2025 220.496 44.0293C220.348 43.8809 220.224 43.6706 220.125 43.3984C220.694 41.3203 221.189 39.4277 221.609 37.7207C222.055 36.0137 222.451 34.5293 222.797 33.2676C223.168 31.8079 223.514 30.4967 223.836 29.334C223.96 28.8145 224.071 28.3073 224.17 27.8125C224.294 27.293 224.417 26.7858 224.541 26.291C224.219 26.8105 223.873 27.3053 223.502 27.7754C223.131 28.2454 222.723 28.6536 222.277 29C221.832 29.3464 221.35 29.6061 220.83 29.7793C220.335 29.9772 219.816 30.0391 219.271 29.9648C217.936 29.7917 216.983 29.2969 216.414 28.4805C215.87 27.6641 215.635 26.6003 215.709 25.2891C215.734 24.7695 215.808 24.2005 215.932 23.582C216.055 22.9635 216.191 22.3698 216.34 21.8008C216.488 21.2318 216.624 20.7246 216.748 20.2793C216.896 19.8092 217.008 19.4753 217.082 19.2773C217.379 18.3372 217.589 17.5332 217.713 16.8652C217.861 16.1973 217.762 15.6406 217.416 15.1953C217.762 14.9727 218.084 14.8242 218.381 14.75C218.702 14.651 218.987 14.5768 219.234 14.5273C219.507 14.5026 219.779 14.5026 220.051 14.5273C220.719 14.6263 221.102 14.8737 221.201 15.2695C221.325 15.6654 221.288 16.2591 221.09 17.0508C220.991 17.4714 220.83 18.0156 220.607 18.6836C220.385 19.3268 220.15 19.9948 219.902 20.6875C219.655 21.3802 219.432 22.0234 219.234 22.6172C219.036 23.1862 218.925 23.5944 218.9 23.8418C218.678 24.9551 218.665 25.821 218.863 26.4395C219.061 27.0332 219.494 27.3301 220.162 27.3301C220.484 27.3301 220.842 27.194 221.238 26.9219C221.634 26.625 222.03 26.2415 222.426 25.7715C222.846 25.3014 223.255 24.7695 223.65 24.1758C224.046 23.5573 224.405 22.9388 224.727 22.3203C225.073 21.7018 225.37 21.0957 225.617 20.502C225.889 19.9082 226.087 19.3763 226.211 18.9062C226.384 17.9909 226.495 17.2734 226.545 16.7539C226.594 16.2344 226.421 15.7643 226.025 15.3438Z" fill="white"/>
</svg>
